<svg width="40" height="40" viewBox="0 0 40 40" fill="none" xmlns="http://www.w3.org/2000/svg">
<path d="M23.75 32.5V25C23.75 24.6685 23.6183 24.3506 23.3839 24.1161C23.1495 23.8817 22.8315 23.75 22.5 23.75H17.5C17.1685 23.75 16.8505 23.8817 16.6161 24.1161C16.3817 24.3506 16.25 24.6685 16.25 25V32.5C16.25 32.8315 16.1183 33.1495 15.8839 33.3839C15.6495 33.6183 15.3315 33.75 15 33.75H7.5C7.16848 33.75 6.85054 33.6183 6.61612 33.3839C6.3817 33.1495 6.25 32.8315 6.25 32.5V18.0469C6.2528 17.8739 6.29018 17.7032 6.35995 17.5449C6.42972 17.3866 6.53047 17.2438 6.65625 17.125L19.1562 5.76566C19.3867 5.55484 19.6877 5.43793 20 5.43793C20.3123 5.43793 20.6133 5.55484 20.8437 5.76566L33.3437 17.125C33.4695 17.2438 33.5703 17.3866 33.64 17.5449C33.7098 17.7032 33.7472 17.8739 33.75 18.0469V32.5C33.75 32.8315 33.6183 33.1495 33.3839 33.3839C33.1495 33.6183 32.8315 33.75 32.5 33.75H25C24.6685 33.75 24.3505 33.6183 24.1161 33.3839C23.8817 33.1495 23.75 32.8315 23.75 32.5Z" stroke="black" stroke-width="1.5" stroke-linecap="round" stroke-linejoin="round"/>
</svg>
