<svg width="54" height="54" viewBox="0 0 54 54" fill="none" xmlns="http://www.w3.org/2000/svg">
<path d="M0.343954 53.6666L3.94929 40.4186C1.57366 36.3463 0.325544 31.7146 0.333288 27C0.333288 12.272 12.272 0.333313 27 0.333313C41.728 0.333313 53.6666 12.272 53.6666 27C53.6666 41.728 41.728 53.6666 27 53.6666C22.2874 53.6743 17.6577 52.4271 13.5866 50.0533L0.343954 53.6666ZM17.376 14.488C17.0316 14.5094 16.6951 14.6001 16.3866 14.7546C16.0973 14.9185 15.8333 15.1232 15.6026 15.3626C15.2826 15.664 15.1013 15.9253 14.9066 16.1786C13.9211 17.4613 13.3909 19.0358 13.4 20.6533C13.4053 21.96 13.7466 23.232 14.28 24.4213C15.3706 26.8266 17.1653 29.3733 19.536 31.7333C20.1066 32.3013 20.664 32.872 21.264 33.4026C24.2063 35.9932 27.7126 37.8614 31.504 38.8587L33.0213 39.0906C33.5146 39.1173 34.008 39.08 34.504 39.056C35.2806 39.0159 36.0389 38.8056 36.7253 38.44C37.0745 38.2601 37.4153 38.0643 37.7466 37.8533C37.7466 37.8533 37.8613 37.7786 38.08 37.6133C38.44 37.3466 38.6613 37.1573 38.96 36.8453C39.1813 36.616 39.3733 36.3466 39.52 36.04C39.728 35.6053 39.936 34.776 40.0213 34.0853C40.0853 33.5573 40.0666 33.2693 40.0586 33.0906C40.048 32.8053 39.8106 32.5093 39.552 32.384L38 31.688C38 31.688 35.68 30.6773 34.264 30.032C34.1147 29.9669 33.9547 29.9298 33.792 29.9226C33.6095 29.9039 33.4252 29.9244 33.2513 29.9829C33.0774 30.0413 32.9181 30.1362 32.784 30.2613V30.256C32.7706 30.256 32.592 30.408 30.664 32.744C30.5533 32.8927 30.4009 33.0051 30.2261 33.0668C30.0513 33.1285 29.8621 33.1368 29.6826 33.0906C29.5089 33.0442 29.3387 32.9854 29.1733 32.9146C28.8426 32.776 28.728 32.7226 28.5013 32.624L28.488 32.6186C26.9624 31.9526 25.5499 31.0529 24.3013 29.952C23.9653 29.6586 23.6533 29.3386 23.3333 29.0293C22.2842 28.0246 21.3699 26.888 20.6133 25.648L20.456 25.3946C20.3429 25.2244 20.2516 25.0408 20.184 24.848C20.0826 24.456 20.3466 24.1413 20.3466 24.1413C20.3466 24.1413 20.9946 23.432 21.296 23.048C21.5469 22.7288 21.781 22.3968 21.9973 22.0533C22.312 21.5466 22.4106 21.0266 22.2453 20.624C21.4986 18.8 20.7253 16.984 19.9306 15.1813C19.7733 14.824 19.3066 14.568 18.8826 14.5173C18.7386 14.5013 18.5946 14.4853 18.4506 14.4746C18.0925 14.4569 17.7336 14.4604 17.376 14.4853V14.488Z" fill="black"/>
</svg>
