<svg width="58" height="506" viewBox="0 0 58 506" fill="none" xmlns="http://www.w3.org/2000/svg">
<g clip-path="url(#clip0_0_175)">
<path d="M57.383 505.926L57.383 491.589C57.383 482.862 52.4468 478.187 43.1915 478.187L14.5 478.187C5.55319 478.187 0.61702 482.862 0.617021 491.589L0.617022 505.926L57.383 505.926ZM8.6383 491.9C8.6383 489.095 10.1809 487.225 14.1915 487.225L43.8085 487.225C47.8192 487.225 49.0532 489.095 49.0532 491.9L49.0532 496.887L8.6383 496.887L8.6383 491.9ZM13.5745 464.473C9.56383 464.473 8.02128 462.603 8.02128 459.798C8.02128 456.681 9.56383 455.122 13.5745 455.122L44.117 455.122C48.1277 455.122 49.6702 456.681 49.6702 459.798C49.6702 462.603 48.1277 464.473 44.117 464.473L13.5745 464.473ZM43.8085 473.2C52.7553 473.2 58 468.525 58 459.798C58 450.759 52.7553 446.084 43.8085 446.084L14.1915 446.084C5.24468 446.084 -2.41142e-06 450.759 -2.01633e-06 459.798C-1.63486e-06 468.525 5.24468 473.2 14.1915 473.2L43.8085 473.2ZM36.0958 422.708L44.117 422.708C48.1277 422.708 49.6702 424.578 49.6702 427.383C49.6702 430.188 48.1277 432.058 44.117 432.058L13.5745 432.058C9.56383 432.058 8.02128 430.188 8.02128 427.383C8.02128 424.578 9.56383 422.708 13.5745 422.708L19.7447 422.708L19.7447 414.293L14.1915 414.293C5.24468 414.293 -3.81467e-06 418.656 -3.41958e-06 427.695C-3.03812e-06 436.422 5.24468 441.097 14.1915 441.097L43.8085 441.097C52.7553 441.097 58 436.422 58 427.695C58 418.656 52.7553 414.293 43.8085 414.293L36.0958 414.293L36.0958 422.708ZM0.617017 408.994L43.8085 408.994C52.7553 408.994 58 404.631 58 395.592C58 386.865 52.7553 382.19 43.8085 382.19L0.617016 382.19L0.617016 390.917L44.4255 390.917C48.4362 390.917 49.6702 392.475 49.6702 395.592C49.6702 398.397 48.4362 400.267 44.4255 400.267L0.617017 400.267L0.617017 408.994ZM0.617015 363.801L0.617016 376.268L57.383 376.268L57.383 368.476L17.2766 368.476L57.383 361.619L57.383 353.204L16.6596 346.971L57.383 346.971L57.383 338.555L0.617014 338.555L0.617015 351.022L40.7234 357.256L0.617015 363.801ZM8.63829 322.971L8.63829 307.388L0.617013 307.388L0.617014 332.01L57.383 332.01L57.383 307.388L49.0532 307.388L49.0532 322.971L32.7021 322.971L32.7021 310.816L24.3723 310.816L24.3723 322.971L8.63829 322.971ZM57.383 282.765L57.383 273.415L0.617011 273.415L0.617012 281.518L34.5532 281.518L0.617012 290.869L0.617013 302.089L57.383 302.089L57.383 293.985L16.3511 293.985L57.383 282.765ZM8.63829 269.675L8.63829 260.324L57.383 260.324L57.383 251.286L8.63829 251.286L8.63829 241.935L0.61701 241.935L0.617011 269.675L8.63829 269.675ZM14.5 220.118C30.8511 220.118 33.6277 237.884 50.2872 237.884L57.383 237.884L57.383 212.014L49.0532 212.014L49.0532 228.845C48.7447 229.157 48.4362 229.157 47.8192 229.157C38.5638 229.157 32.0851 211.079 14.1915 211.079C5.24467 211.079 -1.26838e-05 215.754 -1.23023e-05 224.481C-1.19072e-05 233.52 5.24467 237.884 14.1915 237.884L19.7447 237.884L19.7447 229.468L13.5745 229.468C9.56382 229.468 8.02127 227.598 8.02127 224.793C8.02127 221.988 9.56382 220.118 14.5 220.118ZM46.8936 207.651L46.8936 190.509L57.383 190.509L57.383 181.47L46.8936 181.47L46.8936 177.418L38.8723 177.418L38.8723 181.47L0.617007 181.47L0.617008 191.444L38.8723 207.651L46.8936 207.651ZM38.8723 199.547L17.5851 190.509L38.8723 190.509L38.8723 199.547ZM57.383 176.171L57.383 168.38L0.617006 145.939L0.617006 153.419L57.383 176.171ZM0.617006 142.822L8.63829 142.822L8.63828 124.745L57.0745 140.017L57.0745 131.29L8.32977 115.706L0.617004 115.706L0.617006 142.822Z" fill="black"/>
<path fill-rule="evenodd" clip-rule="evenodd" d="M8.02128 103.862L8.02127 2.56742L-4.53674e-06 0.0740051L-1.22615e-07 101.057L8.02128 103.862Z" fill="black"/>
<path fill-rule="evenodd" clip-rule="evenodd" d="M20.3617 107.603L20.3617 6.61921L12.3404 3.81412L12.3405 105.109L20.3617 107.603Z" fill="black"/>
<path fill-rule="evenodd" clip-rule="evenodd" d="M32.3936 111.343L32.3936 10.3593L24.6808 7.86591L24.6808 108.849L32.3936 111.343Z" fill="black"/>
<path fill-rule="evenodd" clip-rule="evenodd" d="M44.734 115.395L44.734 14.4111L36.7128 11.606L36.7128 112.901L44.734 115.395Z" fill="black"/>
<path fill-rule="evenodd" clip-rule="evenodd" d="M56.766 119.135L56.766 18.1513L49.0532 15.6579L49.0532 116.641L56.766 119.135Z" fill="black"/>
</g>
<defs>
<clipPath id="clip0_0_175">
<rect width="506" height="58" fill="white" transform="translate(0 506) rotate(-90)"/>
</clipPath>
</defs>
</svg>
