<svg width="187" height="40" viewBox="0 0 187 40" fill="none" xmlns="http://www.w3.org/2000/svg">
<path d="M13.1808 39.942H10.5974L2.29789 4.62435V40H0V0.0581055H3.70375L11.9462 35.3757L20.1387 0.0581055H23.8424V40H21.3733V4.5082L13.1808 39.942Z" fill="white"/>
<path d="M36.5166 0.0581055V40H33.9332V0.0581055H36.5166Z" fill="white"/>
<path d="M50.3681 31.1506L48.4056 40H46.0507L54.6285 0H58.3893L67.1385 40H64.5551L62.5926 31.1579H50.3681V31.1506ZM50.7606 28.8711H62.2001L56.4197 3.02722L50.7606 28.8711Z" fill="white"/>
<path d="M89.8534 39.942H87.27L78.9705 4.62435V40H76.6726V0.0581055H80.3764L88.6188 35.3757L96.8113 0.0581055H100.515V40H98.0459V4.5082L89.8534 39.942Z" fill="white"/>
<path d="M113.189 0.0581055V40H110.606V0.0581055H113.189Z" fill="white"/>
<path d="M150.769 39.942H148.186L139.886 4.62435V40H137.588V0.0581055H141.292L149.534 35.3757L157.727 0.0581055H161.431V40H158.961V4.5082L150.769 39.942Z" fill="white"/>
<path d="M184.816 18.5409V20.9365H174.105V37.6044H187.007V40H171.528V0.0581055H187.007V2.45375H174.105V18.5409H184.816Z" fill="white"/>
</svg>
