<svg width="443" height="94" viewBox="0 0 443 94" fill="none" xmlns="http://www.w3.org/2000/svg">
<g clip-path="url(#clip0_101_169)">
<path d="M31.225 93.8635H25.1051L5.44367 10.8671L5.44367 94H0L0 0.136475L8.77412 0.136475L28.3003 83.1329L47.7082 0.136475L56.4823 0.136475L56.4823 94H50.6329L50.6329 10.5942L31.225 93.8635Z" fill="black"/>
<path d="M86.507 0.136475L86.507 94H80.3871L80.3871 0.136475L86.507 0.136475Z" fill="black"/>
<path d="M119.321 73.204L114.672 94H109.093L129.414 0L138.323 0L159.05 94L152.93 94L148.281 73.2211H119.321V73.204ZM120.251 67.8472H147.351L133.657 7.11398L120.251 67.8472Z" fill="black"/>
<path d="M212.861 93.8635H206.741L187.08 10.8671L187.08 94H181.636L181.636 0.136475L190.41 0.136475L209.936 83.1329L229.344 0.136475L238.118 0.136475V94H232.269V10.5942L212.861 93.8635Z" fill="black"/>
<path d="M268.143 0.136475V94H262.023V0.136475L268.143 0.136475Z" fill="black"/>
<path d="M357.169 93.8635H351.049L331.388 10.8671V94H325.944V0.136475L334.718 0.136475L354.244 83.1329L373.652 0.136475L382.426 0.136475V94H376.577V10.5942L357.169 93.8635Z" fill="black"/>
<path d="M437.827 43.571V49.2007L412.451 49.2007V88.3703H443.017V94H406.348V0.136475L443.017 0.136475V5.76624L412.451 5.76624V43.571L437.827 43.571Z" fill="black"/>
</g>
<defs>
<clipPath id="clip0_101_169">
<rect width="443" height="94" fill="white"/>
</clipPath>
</defs>
</svg>
