<svg width="94" height="443" viewBox="0 0 94 443" fill="none" xmlns="http://www.w3.org/2000/svg">
<g clip-path="url(#clip0_79_87)">
<path d="M93.8635 411.775L93.8635 417.895L10.8671 437.556L94 437.556L94 443L0.136475 443L0.136474 434.226L83.1329 414.7L0.136473 395.292L0.136472 386.518L94 386.518L94 392.367L10.5942 392.367L93.8635 411.775Z" fill="black"/>
<path d="M0.136474 356.493L94 356.493L94 362.613L0.136475 362.613L0.136474 356.493Z" fill="black"/>
<path d="M73.204 323.679L94 328.328L94 333.907L-8.8825e-07 313.586L-1.27769e-06 304.677L94 283.95L94 290.07L73.2211 294.719L73.2211 323.679L73.204 323.679ZM67.8472 322.749L67.8472 295.649L7.11398 309.343L67.8472 322.749Z" fill="black"/>
<path d="M93.8635 230.139L93.8635 236.259L10.8671 255.92L94 255.92L94 261.364L0.136475 261.364L0.136474 252.59L83.1329 233.064L0.136473 213.656L0.136472 204.882L94 204.882L94 210.731L10.5942 210.731L93.8635 230.139Z" fill="black"/>
<path d="M0.136474 174.857L94 174.857L94 180.977L0.136475 180.977L0.136474 174.857Z" fill="black"/>
<path d="M93.8635 85.8308L93.8635 91.9507L10.8671 111.612L94 111.612L94 117.056L0.136475 117.056L0.136474 108.282L83.1329 88.7555L0.136473 69.3476L0.136472 60.5735L94 60.5735L94 66.4229L10.5942 66.4229L93.8635 85.8308Z" fill="black"/>
<path d="M43.571 5.17315L49.2007 5.17315L49.2007 30.5488L88.3703 30.5488L88.3703 -0.0168992L94 -0.0168994L94 36.6518L0.136475 36.6518L0.136473 -0.0168953L5.76624 -0.0168955L5.76624 30.5488L43.571 30.5488L43.571 5.17315Z" fill="black"/>
</g>
<defs>
<clipPath id="clip0_79_87">
<rect width="443" height="94" fill="white" transform="translate(0 443) rotate(-90)"/>
</clipPath>
</defs>
</svg>
