<svg width="63" height="489" viewBox="0 0 63 489" fill="none" xmlns="http://www.w3.org/2000/svg">
<path d="M60 438.446L38.2459 439.374C29.1395 439.711 21.3542 439.88 14.8898 439.88L14.8898 440.048C22.4784 442.016 29.8141 444.152 36.8968 446.456L59.0725 453.37L59.0725 463.404L37.1498 469.475C30.2919 471.386 22.8719 473.101 14.8898 474.619L14.8898 474.787C23.6589 475.068 31.5005 475.377 38.4145 475.715L60 476.811L60 488.7L3.16954 485.074L3.16954 467.957L22.1411 462.392C28.999 460.481 35.7726 458.879 42.4618 457.586L42.4618 457.249C34.8732 455.507 28.0715 453.708 22.0568 451.853L3.16954 445.866L3.16954 429.002L60 425.967L60 438.446ZM59.747 416.127L3.9284 416.127C3.14143 411.63 2.74795 406.093 2.74795 399.516C2.74795 391.984 3.81598 386.363 5.95204 382.653C8.36916 378.156 12.1073 375.907 17.1664 375.907C19.7521 375.907 22.113 376.694 24.2491 378.268C26.3851 379.842 28.0434 382.175 29.2239 385.266L29.3925 385.266C30.2919 381.894 31.9501 379.167 34.3673 377.088C36.7844 375.008 39.7636 373.968 43.305 373.968C48.1954 373.968 52.2427 375.935 55.4468 379.87C58.8758 384.198 60.5902 391.646 60.5902 402.214C60.5902 407.667 60.3092 412.304 59.747 416.127ZM12.4445 403.395L25.6825 403.395L25.6825 399.179C25.6825 395.806 25.0642 393.249 23.8275 391.506C22.5346 389.707 20.8201 388.808 18.6841 388.808C14.2995 388.808 12.1073 391.843 12.1073 397.914C12.1073 400.219 12.2197 402.046 12.4445 403.395ZM34.8732 403.395L50.8936 403.395C51.0061 402.552 51.0623 400.893 51.0623 398.42C51.0623 395.216 50.3877 392.602 49.0386 390.578C47.6895 388.499 45.6097 387.459 42.7991 387.459C40.1009 387.459 38.1054 388.527 36.8125 390.663C35.5196 392.799 34.8732 395.581 34.8732 399.01L34.8732 403.395ZM45.4129 336.058L45.4129 352.331L60 356.378L60 369.616L3.16954 352.331L3.16954 335.467L60 317.76L60 331.673L45.4129 336.058ZM35.8007 350.476L35.8007 337.913L23.7432 341.454C22.0568 341.96 18.403 342.915 12.7818 344.321L12.7818 344.489C13.5126 344.658 15.227 345.051 17.9252 345.67C20.5672 346.288 22.5065 346.766 23.7432 347.103L35.8007 350.476ZM36.2223 290.408L26.1884 290.408L26.1884 266.04C22.1973 266.49 18.937 268.063 16.4075 270.762C13.8779 273.46 12.6132 277.086 12.6132 281.639C12.6132 285.574 13.4001 289.452 14.9741 293.275L5.44613 295.804C3.31006 290.914 2.24203 285.855 2.24203 280.627C2.24203 275.793 3.029 271.521 4.60294 267.811C6.17688 264.101 8.34105 261.149 11.0954 258.957C13.8498 256.709 16.9696 255.022 20.4548 253.898C23.8837 252.774 27.6218 252.212 31.6691 252.212C40.9441 252.212 48.1392 254.994 53.2545 260.559C58.3698 266.124 60.9275 273.235 60.9275 281.892C60.9275 287.681 60.0281 292.544 58.2293 296.479L48.3641 294.202C49.7132 290.942 50.3877 287.176 50.3877 282.903C50.3877 278.182 49.0948 274.331 46.5091 271.352C43.8671 268.316 40.4382 266.574 36.2223 266.124L36.2223 290.408ZM0.724304 221.864L0.724304 209.891L5.69907 209.891C5.92392 206.687 6.57036 203.708 7.63839 200.953C8.70642 198.143 10.2241 195.557 12.1916 193.196C14.159 190.835 16.801 188.98 20.1175 187.631C23.3778 186.282 27.144 185.608 31.4161 185.608C35.632 185.608 39.3701 186.282 42.6304 187.631C45.8907 188.98 48.5327 190.835 50.5564 193.196C52.5238 195.501 54.0415 198.058 55.1095 200.869C56.1776 203.68 56.8802 206.743 57.2175 210.06L62.3609 210.06L62.3609 222.033L57.2175 222.033C56.7116 228.947 54.3788 234.737 50.2191 239.403C46.0594 244.012 39.9323 246.317 31.8377 246.317C27.5094 246.317 23.687 245.586 20.3704 244.124C16.9977 242.607 14.3276 240.639 12.3602 238.222C10.3366 235.749 8.79074 233.135 7.72271 230.38C6.59847 227.626 5.92392 224.787 5.69907 221.864L0.724304 221.864ZM48.1954 221.949L14.5525 221.949C14.946 224.984 16.5199 227.654 19.2743 229.959C22.0287 232.264 26.1322 233.416 31.5848 233.416C36.7001 233.416 40.663 232.264 43.4736 229.959C46.2842 227.598 47.8582 224.928 48.1954 221.949ZM14.5525 209.975L48.1954 209.975C47.9144 206.94 46.4248 204.27 43.7266 201.965C40.9722 199.661 36.8687 198.508 31.4161 198.508C25.9635 198.508 21.8882 199.632 19.19 201.881C16.4918 204.129 14.946 206.828 14.5525 209.975ZM60 111.137L38.2459 112.064C29.1395 112.402 21.3541 112.57 14.8898 112.57L14.8898 112.739C22.4784 114.706 29.8141 116.842 36.8968 119.147L59.0725 126.061L59.0725 136.095L37.1498 142.166C30.2919 144.077 22.8719 145.792 14.8898 147.309L14.8898 147.478C23.6588 147.759 31.5004 148.068 38.4145 148.405L60 149.502L60 161.39L3.16953 157.765L3.16953 140.648L22.1411 135.083C28.999 133.172 35.7726 131.57 42.4618 130.277L42.4618 129.94C34.8732 128.197 28.0715 126.398 22.0568 124.543L3.16953 118.557L3.16952 101.693L60 98.6577L60 111.137ZM3.16952 88.7332L3.16952 54.4157L13.7093 54.4157L13.7093 75.9168L60 75.9168L60 88.7332L3.16952 88.7332ZM3.08521 50.7353L3.0852 36.2326L23.5745 27.9694C25.036 27.4073 26.9754 26.7046 29.3925 25.8615C31.8096 24.9621 33.496 24.3156 34.4516 23.9221L34.4516 23.6692C33.8332 23.5005 32.2874 23.079 29.8141 22.4044C27.3407 21.7299 25.1766 21.1396 23.3216 20.6337L3.0852 14.4785L3.0852 0.903276L31.1632 11.6117C42.6304 16.1087 50.1629 19.8468 53.7604 22.826C58.7633 26.8171 61.2648 31.848 61.2648 37.919C61.2648 40.3923 60.9556 42.5002 60.3373 44.2428L50.0504 43.3153C50.3315 42.0787 50.472 40.6734 50.472 39.0994C50.472 37.2444 49.9661 35.6424 48.9543 34.2933C47.8863 32.9442 46.6496 31.9605 45.2443 31.3421C44.5135 31.0049 43.6141 31.0892 42.5461 31.5951L3.08521 50.7353Z" fill="black"/>
</svg>
